<svg xmlns="http://www.w3.org/2000/svg" width="120" height="120" viewBox="0 0 120 120"><defs><style>.a{fill:#006b9b;}</style></defs><path class="a" d="M39.643-2.5a3.043,3.043,0,0,0,3.214-2.812v-9.375A3.043,3.043,0,0,0,39.643-17.5H28.929a3.043,3.043,0,0,0-3.214,2.812v9.375A3.043,3.043,0,0,0,28.929-2.5ZM68.571-5.312v-9.375A3.043,3.043,0,0,0,65.357-17.5H54.643a3.043,3.043,0,0,0-3.214,2.812v9.375A3.043,3.043,0,0,0,54.643-2.5H65.357A3.043,3.043,0,0,0,68.571-5.312Zm25.714,0v-9.375A3.043,3.043,0,0,0,91.071-17.5H80.357a3.043,3.043,0,0,0-3.214,2.812v9.375A3.043,3.043,0,0,0,80.357-2.5H91.071A3.043,3.043,0,0,0,94.286-5.312Zm-25.714,22.5V7.813A3.043,3.043,0,0,0,65.357,5H54.643a3.043,3.043,0,0,0-3.214,2.812v9.375A3.043,3.043,0,0,0,54.643,20H65.357A3.043,3.043,0,0,0,68.571,17.188Zm-25.714,0V7.813A3.043,3.043,0,0,0,39.643,5H28.929a3.043,3.043,0,0,0-3.214,2.812v9.375A3.043,3.043,0,0,0,28.929,20H39.643A3.043,3.043,0,0,0,42.857,17.188Zm51.429,0V7.813A3.043,3.043,0,0,0,91.071,5H80.357a3.043,3.043,0,0,0-3.214,2.812v9.375A3.043,3.043,0,0,0,80.357,20H91.071A3.043,3.043,0,0,0,94.286,17.188ZM120-43.75C120-49.961,114.241-55,107.143-55H94.286V-67.187A3.043,3.043,0,0,0,91.071-70H80.357a3.043,3.043,0,0,0-3.214,2.813V-55H42.857V-67.187A3.043,3.043,0,0,0,39.643-70H28.929a3.043,3.043,0,0,0-3.214,2.813V-55H12.857C5.759-55,0-49.961,0-43.75v82.5C0,44.961,5.759,50,12.857,50h94.286C114.241,50,120,44.961,120,38.75ZM107.143,37.344a1.521,1.521,0,0,1-1.607,1.406H14.464a1.521,1.521,0,0,1-1.607-1.406V-32.5h94.286Z" transform="translate(0 70)"/></svg>